<?xml version="1.0" standalone="no"?>
<!DOCTYPE svg PUBLIC "-//W3C//DTD SVG 20010904//EN"
 "http://www.w3.org/TR/2001/REC-SVG-20010904/DTD/svg10.dtd">
<svg version="1.0" xmlns="http://www.w3.org/2000/svg"
 width="16.000000pt" height="16.000000pt" viewBox="0 0 16.000000 16.000000"
 preserveAspectRatio="xMidYMid meet">
<metadata>
Created by potrace 1.11, written by Peter Selinger 2001-2013
</metadata>
<g transform="translate(0.000000,16.000000) scale(0.001563,-0.001563)"
fill="#000000" stroke="none">
<path d="M3024 6336 c20 -178 21 -159 -15 -201 -27 -30 -113 -102 -236 -197
-6 -5 -33 -15 -60 -21 -61 -15 -68 -39 -16 -55 21 -6 51 -22 67 -35 l29 -23
-58 -58 c-31 -31 -58 -56 -60 -54 -1 2 -7 12 -13 23 -15 29 -93 65 -160 75
-55 8 -179 -1 -259 -18 -37 -8 -40 -7 -124 69 -96 88 -149 115 -253 129 -39 6
-113 18 -164 26 -131 23 -294 15 -386 -17 -75 -26 -141 -77 -170 -131 -10 -19
-30 -40 -45 -46 -62 -29 -91 -71 -125 -183 -24 -80 -26 -99 -24 -263 l1 -177
61 -55 c71 -64 178 -121 246 -130 l48 -6 -9 -32 c-5 -17 -9 -45 -9 -62 0 -17
-12 -53 -27 -80 -20 -38 -26 -63 -26 -111 -1 -55 3 -66 27 -92 31 -33 95 -54
147 -49 43 4 41 21 -3 28 -30 5 -28 7 28 18 49 10 69 10 99 0 36 -13 38 -16
57 -88 10 -41 23 -84 28 -95 5 -11 14 -36 20 -56 13 -45 51 -97 87 -121 39
-25 107 -23 150 3 38 24 42 23 226 -32 57 -18 87 -20 180 -17 101 4 120 8 192
39 188 82 345 231 345 330 0 13 4 30 9 38 8 12 15 8 37 -20 115 -139 291 -277
404 -316 76 -26 106 -28 157 -9 21 7 77 18 124 23 84 10 89 12 162 66 133 101
237 228 320 393 19 38 40 89 47 114 17 63 14 160 -7 223 l-19 54 45 18 c50 21
163 123 217 197 32 43 36 54 31 91 -3 23 -9 52 -12 63 -7 22 -7 22 44 -2 100
-48 104 -70 86 -521 -18 -440 -26 -478 -105 -528 -65 -41 -66 -119 -1 -162
l34 -23 481 0 c528 0 552 2 667 61 82 41 153 113 192 197 30 62 32 75 32 172
0 91 -3 111 -24 152 -31 60 -91 118 -166 160 -33 19 -61 41 -63 49 -2 9 19 39
46 66 72 73 95 141 90 258 -5 103 -23 148 -85 206 -48 47 -106 76 -185 93 -85
19 -971 17 -1005 -2 -31 -17 -53 -52 -53 -83 0 -24 -4 -22 -66 37 -36 35 -89
79 -118 98 -53 35 -53 36 -59 96 -7 83 -48 148 -167 266 -118 117 -146 137
-233 170 -63 24 -77 26 -151 20 -44 -4 -102 -9 -128 -11 -27 -1 -72 -12 -100
-23 -29 -11 -73 -28 -98 -36 -73 -26 -210 -173 -331 -356 -19 -29 -24 -27 -33
17 -7 29 -2 37 61 100 37 37 99 95 136 128 l68 60 -5 45 c-3 25 -9 74 -13 110
-8 62 -9 65 -37 68 l-29 4 7 -56z m2056 -871 c50 -26 74 -86 74 -185 0 -129
-38 -180 -134 -180 -35 0 -42 4 -51 27 -16 42 -8 316 10 336 17 21 63 22 101
2z m-2332 -135 c-30 -57 -47 -80 -61 -80 -13 0 -17 5 -13 18 2 9 7 31 11 49 7
34 64 93 90 93 11 0 4 -22 -27 -80z m-1007 -264 c-6 -14 -12 -26 -14 -26 -1 0
-29 -9 -61 -20 -53 -19 -96 -19 -96 -1 0 4 25 15 56 25 31 10 70 26 87 37 37
22 41 20 28 -15z m3384 -204 c48 -28 78 -99 78 -190 1 -127 -47 -185 -148
-180 -47 3 -51 5 -69 42 -14 29 -20 69 -24 171 l-5 133 27 27 c24 24 32 27 69
21 23 -4 55 -15 72 -24z"/>
<path d="M5920 5689 c-46 -19 -70 -50 -70 -90 0 -56 8 -68 62 -95 85 -43 83
-29 72 -511 -11 -504 -6 -482 -129 -535 -22 -10 -32 -23 -39 -49 -11 -46 7
-85 53 -116 l35 -24 490 4 c433 2 498 5 551 20 226 66 382 221 455 452 31 96
39 326 17 437 -53 254 -199 414 -449 490 -70 21 -89 22 -548 25 -307 1 -484
-1 -500 -8z m774 -238 c132 -58 197 -225 197 -506 0 -244 -51 -374 -171 -435
-79 -40 -196 -33 -222 13 -17 29 -25 869 -9 910 6 15 21 32 33 37 31 13 123 3
172 -19z"/>
<path d="M7690 5694 c-139 -26 -215 -110 -164 -182 8 -12 39 -37 68 -56 47
-30 55 -40 65 -82 23 -90 11 -591 -19 -813 -10 -72 -26 -94 -87 -121 -40 -18
-43 -21 -43 -59 0 -56 7 -69 54 -94 38 -20 55 -22 206 -22 156 0 168 1 215 25
89 45 99 113 22 156 -70 39 -72 47 -72 256 0 164 2 189 17 204 16 17 18 17 36
0 11 -9 68 -126 128 -259 145 -323 172 -360 233 -327 22 11 76 118 172 339
116 267 182 304 182 101 1 -47 -3 -121 -7 -165 -8 -79 -9 -81 -57 -128 -54
-53 -65 -80 -50 -120 27 -69 129 -91 396 -85 205 5 248 14 296 59 49 46 38
109 -26 149 -56 35 -67 67 -76 230 -18 330 -6 658 26 719 7 15 32 43 54 64 37
35 41 44 41 86 0 39 -5 52 -27 72 -50 45 -80 52 -234 57 -265 8 -283 -6 -441
-327 -103 -212 -139 -271 -163 -271 -31 0 -99 101 -186 274 -113 228 -144 278
-183 302 -27 16 -54 19 -191 21 -88 0 -171 -1 -185 -3z"/>
</g>
</svg>
